<svg width="340" height="340" viewBox="0 0 340 340" fill="none" xmlns="http://www.w3.org/2000/svg">
<path d="M0 0H340V340H0V0Z" fill="#10A969"/>
<path d="M126.821 261.989C126.821 261.89 129.037 258.206 131.737 253.774C134.437 249.349 137.616 244.142 138.768 242.181C139.926 240.22 142.111 236.569 143.616 234.066C145.126 231.562 146.316 229.468 146.284 229.402C146.221 229.368 128.811 229.335 107.584 229.335C83.3684 229.335 69.0105 229.235 69.0105 229.03C69.0105 228.859 71.5474 224.532 74.6632 219.464C77.7789 214.396 82.2105 207.161 84.5211 203.406L88.6947 196.542H127.558H166.389L165.811 197.49C165.521 197.999 164.495 199.617 163.563 201.107C162.663 202.597 159.547 207.699 156.689 212.429C153.8 217.16 150.395 222.771 149.111 224.87C147.795 226.964 146.732 228.759 146.732 228.859C146.732 228.958 154.568 228.992 164.174 228.892C182.9 228.72 183.026 228.72 190.221 226.726C221.184 218.173 238.174 185.857 227.832 155.302C220.926 134.951 203.295 121.091 180.937 118.455C177.821 118.084 146.732 117.984 146.732 118.322C146.732 118.527 155.468 133.095 163.174 145.769C164.911 148.611 166.321 151.009 166.321 151.076C166.321 151.175 148.879 151.209 127.584 151.175L88.8474 151.076L82.5526 140.767C69.9632 120.078 69 118.455 69 118.289C69 118.189 86.4421 118.117 107.737 118.117C139.663 118.117 146.437 118.05 146.311 117.679C146.216 117.441 144.963 115.248 143.516 112.843C137.958 103.715 127.426 85.9723 127.232 85.4627C126.942 84.6872 180 84.9531 185.753 85.7674C211.221 89.3845 230.395 100.302 245.589 119.806C257.7 135.388 264.763 157.562 263.8 176.933C262.868 195.457 256.832 212.462 246.105 226.626C242.7 231.158 234.705 239.339 230.4 242.718C217.616 252.755 203.868 258.572 186.558 261.175C182.189 261.851 180.232 261.917 154.374 262.023C139.216 262.089 126.816 262.089 126.816 261.989H126.821Z" fill="white"/>
</svg>
